{"title":"The Descendants[2011]BRrip[Ac3-5.1]-=[CaLvIn]=-","uid":7281927,"size":748817607,"categoryP":"video","categoryS":"movies","magnet":"?xt=urn:btih:a93a3cdc95b6c0f1431ff66aa45df3262d93185b&amp;dn=The+Descendants%5B2011%5DBRrip%5BAc3-5.1%5D-%3D%5BCaLvIn%5D%3D-&amp;tr=udp%3A%2F%2Ftracker.openbittorrent.com%3A80&amp;tr=udp%3A%2F%2Fopen.demonii.com%3A1337&amp;tr=udp%3A%2F%2Ftracker.coppersurfer.tk%3A6969&amp;tr=udp%3A%2F%2Fexodus.desync.com%3A6969","seeders":1,"leechers":0,"uploader":"rhythmtheguru","files":15,"time":1337460315,"description":"General\nComplete name                    : The Descendants[2011]BRrip[Ac3-5.1]-=[CaLvIn]=-\nImdb Link                        : http://www.imdb.com/title/tt1033575\nFormat                           : AVI\nFormat/Info                      : Audio Video Interleave\nFile size                        : 704 MiB\nDuration                         : 1h 55mn\nOverall bit rate                 : 856 Kbps\nWriting application              : VirtualDubMod 1.5.10.3 | www.virtualdub-fr.org || (build 2550/release)\nWriting library                  : VirtualDubMod build 2550/release\n\nVideo\nID                               : 0\nFormat                           : MPEG-4 Visual\nFormat profile                   : Advanced Simple@L5\nFormat settings, BVOP            : 2\nFormat settings, QPel            : No\nFormat settings, GMC             : No warppoints\nFormat settings, Matrix          : Default (H.263)\nCodec ID                         : XVID\nCodec ID/Hint                    : XviD\nDuration                         : 1h 55mn\nBit rate                         : 719 Kbps\nWidth                            : 720 pixels\nHeight                           : 304 pixels\nDisplay aspect ratio             : 16:9\nFrame rate                       : 23.976 fps\nColor space                      : YUV\nChroma subsampling               : 4:2:0\nBit depth                        : 8 bits\nScan type                        : Progressive\nCompression mode                 : Lossy\nBits/(Pixel*Frame)               : 0.137\nStream size                      : 591 MiB (84%)\nWriting library                  : XviD 1.2.1 (UTC 2008-12-04)\n\nAudio\nID                               : 1\nFormat                           : AC-3\nFormat/Info                      : Audio Coding 3\nMode extension                   : CM (complete main)\nCodec ID                         : 2000\nDuration                         : 1h 55mn\nBit rate mode                    : Constant\nBit rate                         : 128 Kbps\nChannel(s)                       : 6 channels\nChannel positions                : Front: L C R, Side: L R, LFE\nSampling rate                    : 48.0 KHz\nBit depth                        : 16 bits\nCompression mode                 : Lossy\nStream size                      : 105 MiB (15%)\nAlignment                        : Split accross interleaves\nInterleave, duration             : 42 ms (1.00 video frame)\nInterleave, preload duration     : 500 ms\n\n\nScreens\n &lt;a href=&quot;\nhttp://img571.imageshack.us/img571/2420/37567476.png&quot; rel=&quot;nofollow&quot; target=&quot;_NEW&quot;&gt;\nhttp://img571.imageshack.us/img571/2420/37567476.png&lt;/a&gt; &lt;a href=&quot;\nhttp://img560.imageshack.us/img560/473/71362957.png&quot; rel=&quot;nofollow&quot; target=&quot;_NEW&quot;&gt;\nhttp://img560.imageshack.us/img560/473/71362957.png&lt;/a&gt; &lt;a href=&quot;\nhttp://img152.imageshack.us/img152/3236/55599061.png&quot; rel=&quot;nofollow&quot; target=&quot;_NEW&quot;&gt;\nhttp://img152.imageshack.us/img152/3236/55599061.png&lt;/a&gt; &lt;a href=&quot;\nhttp://img825.imageshack.us/img825/6074/96174306.png&quot; rel=&quot;nofollow&quot; target=&quot;_NEW&quot;&gt;\nhttp://img825.imageshack.us/img825/6074/96174306.png&lt;/a&gt; &lt;a href=&quot;\nhttp://img41.imageshack.us/img41/5909/60069163.png&quot; rel=&quot;nofollow&quot; target=&quot;_NEW&quot;&gt;\nhttp://img41.imageshack.us/img41/5909/60069163.png&lt;/a&gt; &lt;a href=&quot;\nhttp://img406.imageshack.us/img406/1504/55541484.png&quot; rel=&quot;nofollow&quot; target=&quot;_NEW&quot;&gt;\nhttp://img406.imageshack.us/img406/1504/55541484.png&lt;/a&gt; &lt;a href=&quot;\nhttp://img41.imageshack.us/img41/874/98680335.png&quot; rel=&quot;nofollow&quot; target=&quot;_NEW&quot;&gt;\nhttp://img41.imageshack.us/img41/874/98680335.png&lt;/a&gt; &lt;a href=&quot;\nhttp://img690.imageshack.us/img690/2996/76375371.png&quot; rel=&quot;nofollow&quot; target=&quot;_NEW&quot;&gt;\nhttp://img690.imageshack.us/img690/2996/76375371.png&lt;/a&gt; &lt;a href=&quot;\nhttp://img209.imageshack.us/img209/7540/47618940.png&quot; rel=&quot;nofollow&quot; target=&quot;_NEW&quot;&gt;\nhttp://img209.imageshack.us/img209/7540/47618940.png&lt;/a&gt; &lt;a href=&quot;\nhttp://img580.imageshack.us/img580/460/94778251.png&quot; rel=&quot;nofollow&quot; target=&quot;_NEW&quot;&gt;\nhttp://img580.imageshack.us/img580/460/94778251.png&lt;/a&gt;","torrent":{"xt":"urn:btih:a93a3cdc95b6c0f1431ff66aa45df3262d93185b","amp;dn":"The+Descendants%5B2011%5DBRrip%5BAc3-5.1%5D-%3D%5BCaLvIn%5D%3D-","amp;tr":["udp%3A%2F%2Ftracker.openbittorrent.com%3A80","udp%3A%2F%2Fopen.demonii.com%3A1337","udp%3A%2F%2Ftracker.coppersurfer.tk%3A6969","udp%3A%2F%2Fexodus.desync.com%3A6969"],"infoHash":"a93a3cdc95b6c0f1431ff66aa45df3262d93185b","infoHashBuffer":{"type":"Buffer","data":[169,58,60,220,149,182,192,241,67,31,246,106,164,93,243,38,45,147,24,91]},"announce":[],"urlList":[]}}